<svg width="24" height="25" viewBox="0 0 24 25" fill="none" xmlns="http://www.w3.org/2000/svg">
<path fill-rule="evenodd" clip-rule="evenodd" d="M19.5039 2.57729C20.1889 2.37802 20.931 2.57025 21.434 3.08253C21.937 3.5938 22.123 4.33957 21.918 5.02999L20.669 9.23188C20.55 9.63144 20.1339 9.85789 19.7359 9.73913C19.3389 9.61936 19.1129 9.19867 19.2319 8.80012L20.481 4.59722C20.551 4.36171 20.4259 4.2027 20.3689 4.14533C20.3119 4.08696 20.1519 3.96014 19.9209 4.02758L3.82937 8.70652C3.57336 8.781 3.51736 8.99537 3.50536 9.08394C3.49436 9.1725 3.49036 9.39392 3.71837 9.53482L7.10449 11.6182C7.4575 11.8355 7.5695 12.3005 7.35249 12.6568C7.21149 12.8883 6.96548 13.0171 6.71247 13.0171C6.57947 13.0171 6.44446 12.9819 6.32246 12.9064L2.93634 10.8221C2.26532 10.4094 1.91331 9.66667 2.01831 8.88265C2.12331 8.09762 2.65833 7.47464 3.41336 7.25523L19.5039 2.57729ZM18.0282 12.8492C18.1482 12.4487 18.5652 12.2212 18.9622 12.342C19.3592 12.4618 19.5852 12.8824 19.4662 13.282L17.1441 21.096C16.9191 21.8519 16.2971 22.3833 15.5201 22.4829C15.4331 22.495 15.3471 22.5 15.2611 22.5C14.583 22.5 13.963 22.1518 13.602 21.5539L9.50187 14.7645C9.32286 14.4666 9.36786 14.0841 9.61287 13.8386L15.4341 7.98007C15.7271 7.68518 16.2011 7.68518 16.4941 7.98007C16.7871 8.27496 16.7871 8.75302 16.4941 9.04791L11.0899 14.4877L14.8841 20.7699C15.0221 20.9984 15.2391 20.9964 15.3291 20.9863C15.4171 20.9742 15.6301 20.9199 15.7061 20.6643L18.0282 12.8492Z" fill="white"/>
</svg>
