<svg width="24" height="25" viewBox="0 0 24 25" fill="none" xmlns="http://www.w3.org/2000/svg">
<path d="M10.46 6.49999L11 5.90999V9.49999C11 9.7652 11.1054 10.0196 11.2929 10.2071C11.4804 10.3946 11.7348 10.5 12 10.5C12.2652 10.5 12.5196 10.3946 12.7071 10.2071C12.8946 10.0196 13 9.7652 13 9.49999V5.90999L13.54 6.45999C13.6308 6.56251 13.7416 6.6453 13.8657 6.70322C13.9898 6.76114 14.1244 6.79296 14.2613 6.79671C14.3982 6.80047 14.5344 6.77606 14.6615 6.72502C14.7885 6.67398 14.9038 6.59739 15 6.49999C15.0937 6.40702 15.1681 6.29642 15.2189 6.17456C15.2697 6.05271 15.2958 5.922 15.2958 5.78999C15.2958 5.65798 15.2697 5.52727 15.2189 5.40541C15.1681 5.28355 15.0937 5.17295 15 5.07999L12.71 2.78999C12.6149 2.69895 12.5028 2.62758 12.38 2.57999C12.1365 2.47997 11.8635 2.47997 11.62 2.57999C11.4972 2.62758 11.3851 2.69895 11.29 2.78999L9 5.03999C8.80639 5.2336 8.69762 5.49618 8.69762 5.76999C8.69762 6.04379 8.80639 6.30638 9 6.49999C9.19361 6.6936 9.4562 6.80236 9.73 6.80236C10.0038 6.80236 10.2664 6.6936 10.46 6.49999ZM12 12.5C11.4067 12.5 10.8266 12.6759 10.3333 13.0056C9.83994 13.3352 9.45542 13.8038 9.22836 14.3519C9.0013 14.9001 8.94189 15.5033 9.05764 16.0853C9.1734 16.6672 9.45912 17.2018 9.87868 17.6213C10.2982 18.0409 10.8328 18.3266 11.4147 18.4423C11.9967 18.5581 12.5999 18.4987 13.1481 18.2716C13.6962 18.0446 14.1648 17.66 14.4944 17.1667C14.8241 16.6734 15 16.0933 15 15.5C15 14.7043 14.6839 13.9413 14.1213 13.3787C13.5587 12.8161 12.7956 12.5 12 12.5ZM12 16.5C11.8022 16.5 11.6089 16.4413 11.4444 16.3315C11.28 16.2216 11.1518 16.0654 11.0761 15.8827C11.0004 15.6999 10.9806 15.4989 11.0192 15.3049C11.0578 15.1109 11.153 14.9327 11.2929 14.7929C11.4327 14.653 11.6109 14.5578 11.8049 14.5192C11.9989 14.4806 12.2 14.5004 12.3827 14.5761C12.5654 14.6518 12.7216 14.78 12.8315 14.9444C12.9414 15.1089 13 15.3022 13 15.5C13 15.7652 12.8946 16.0196 12.7071 16.2071C12.5196 16.3946 12.2652 16.5 12 16.5ZM5 15.5C5 15.6978 5.05865 15.8911 5.16853 16.0556C5.27841 16.22 5.43459 16.3482 5.61732 16.4239C5.80004 16.4996 6.00111 16.5194 6.19509 16.4808C6.38907 16.4422 6.56725 16.3469 6.70711 16.2071C6.84696 16.0672 6.9422 15.8891 6.98079 15.6951C7.01937 15.5011 6.99957 15.3 6.92388 15.1173C6.84819 14.9346 6.72002 14.7784 6.55557 14.6685C6.39112 14.5586 6.19778 14.5 6 14.5C5.73478 14.5 5.48043 14.6053 5.29289 14.7929C5.10536 14.9804 5 15.2348 5 15.5ZM19 15.5C19 15.3022 18.9414 15.1089 18.8315 14.9444C18.7216 14.78 18.5654 14.6518 18.3827 14.5761C18.2 14.5004 17.9989 14.4806 17.8049 14.5192C17.6109 14.5578 17.4327 14.653 17.2929 14.7929C17.153 14.9327 17.0578 15.1109 17.0192 15.3049C16.9806 15.4989 17.0004 15.6999 17.0761 15.8827C17.1518 16.0654 17.28 16.2216 17.4444 16.3315C17.6089 16.4413 17.8022 16.5 18 16.5C18.2652 16.5 18.5196 16.3946 18.7071 16.2071C18.8946 16.0196 19 15.7652 19 15.5ZM20 8.49999H16C15.7348 8.49999 15.4804 8.60535 15.2929 8.79288C15.1054 8.98042 15 9.23477 15 9.49999C15 9.7652 15.1054 10.0196 15.2929 10.2071C15.4804 10.3946 15.7348 10.5 16 10.5H20C20.2652 10.5 20.5196 10.6053 20.7071 10.7929C20.8946 10.9804 21 11.2348 21 11.5V19.5C21 19.7652 20.8946 20.0196 20.7071 20.2071C20.5196 20.3946 20.2652 20.5 20 20.5H4C3.73478 20.5 3.48043 20.3946 3.29289 20.2071C3.10536 20.0196 3 19.7652 3 19.5V11.5C3 11.2348 3.10536 10.9804 3.29289 10.7929C3.48043 10.6053 3.73478 10.5 4 10.5H8C8.26522 10.5 8.51957 10.3946 8.70711 10.2071C8.89464 10.0196 9 9.7652 9 9.49999C9 9.23477 8.89464 8.98042 8.70711 8.79288C8.51957 8.60535 8.26522 8.49999 8 8.49999H4C3.20435 8.49999 2.44129 8.81606 1.87868 9.37867C1.31607 9.94128 1 10.7043 1 11.5V19.5C1 20.2956 1.31607 21.0587 1.87868 21.6213C2.44129 22.1839 3.20435 22.5 4 22.5H20C20.7956 22.5 21.5587 22.1839 22.1213 21.6213C22.6839 21.0587 23 20.2956 23 19.5V11.5C23 10.7043 22.6839 9.94128 22.1213 9.37867C21.5587 8.81606 20.7956 8.49999 20 8.49999Z" fill="white"/>
</svg>
