<svg width="24" height="24" viewBox="0 0 24 24" fill="none" xmlns="http://www.w3.org/2000/svg">
<path d="M12 12C12.5933 12 13.1734 11.8241 13.6667 11.4944C14.1601 11.1648 14.5446 10.6962 14.7716 10.1481C14.9987 9.59987 15.0581 8.99667 14.9424 8.41473C14.8266 7.83279 14.5409 7.29824 14.1213 6.87868C13.7018 6.45912 13.1672 6.1734 12.5853 6.05764C12.0033 5.94189 11.4001 6.0013 10.8519 6.22836C10.3038 6.45542 9.83524 6.83994 9.50559 7.33329C9.17595 7.82664 9 8.40666 9 9C9 9.79565 9.31607 10.5587 9.87868 11.1213C10.4413 11.6839 11.2044 12 12 12ZM12 8C12.1978 8 12.3911 8.05865 12.5556 8.16853C12.72 8.27841 12.8482 8.43459 12.9239 8.61732C12.9996 8.80004 13.0194 9.00111 12.9808 9.19509C12.9422 9.38907 12.847 9.56725 12.7071 9.70711C12.5673 9.84696 12.3891 9.9422 12.1951 9.98079C12.0011 10.0194 11.8 9.99957 11.6173 9.92388C11.4346 9.84819 11.2784 9.72002 11.1685 9.55557C11.0586 9.39112 11 9.19778 11 9C11 8.73478 11.1054 8.48043 11.2929 8.29289C11.4804 8.10536 11.7348 8 12 8ZM12.71 14.29C12.6149 14.199 12.5028 14.1276 12.38 14.08C12.2603 14.0271 12.1309 13.9998 12 13.9998C11.8691 13.9998 11.7397 14.0271 11.62 14.08C11.4972 14.1276 11.3851 14.199 11.29 14.29L9 16.54C8.80639 16.7336 8.69762 16.9962 8.69762 17.27C8.69762 17.5438 8.80639 17.8064 9 18C9.19361 18.1936 9.4562 18.3024 9.73 18.3024C10.0038 18.3024 10.2664 18.1936 10.46 18L11 17.41V21C11 21.2652 11.1054 21.5196 11.2929 21.7071C11.4804 21.8946 11.7348 22 12 22C12.2652 22 12.5196 21.8946 12.7071 21.7071C12.8946 21.5196 13 21.2652 13 21V17.41L13.54 18C13.7336 18.1936 13.9962 18.3024 14.27 18.3024C14.5438 18.3024 14.8064 18.1936 15 18C15.1936 17.8064 15.3024 17.5438 15.3024 17.27C15.3024 16.9962 15.1936 16.7336 15 16.54L12.71 14.29ZM5 9C5 9.19778 5.05865 9.39112 5.16853 9.55557C5.27841 9.72002 5.43459 9.84819 5.61732 9.92388C5.80004 9.99957 6.00111 10.0194 6.19509 9.98079C6.38907 9.9422 6.56726 9.84696 6.70711 9.70711C6.84696 9.56725 6.9422 9.38907 6.98079 9.19509C7.01937 9.00111 6.99957 8.80004 6.92388 8.61732C6.84819 8.43459 6.72002 8.27841 6.55557 8.16853C6.39112 8.05865 6.19778 8 6 8C5.73478 8 5.48043 8.10536 5.29289 8.29289C5.10536 8.48043 5 8.73478 5 9ZM4 16L7 16C7.26522 16 7.51957 15.8946 7.70711 15.7071C7.89464 15.5196 8 15.2652 8 15C8 14.7348 7.89464 14.4804 7.70711 14.2929C7.51957 14.1054 7.26522 14 7 14H4C3.73478 14 3.48043 13.8946 3.29289 13.7071C3.10536 13.5196 3 13.2652 3 13L3 5C3 4.73478 3.10536 4.48043 3.29289 4.29289C3.48043 4.10536 3.73478 4 4 4L20 4C20.2652 4 20.5196 4.10536 20.7071 4.29289C20.8946 4.48043 21 4.73478 21 5L21 13C21 13.2652 20.8946 13.5196 20.7071 13.7071C20.5196 13.8946 20.2652 14 20 14H17C16.7348 14 16.4804 14.1054 16.2929 14.2929C16.1054 14.4804 16 14.7348 16 15C16 15.2652 16.1054 15.5196 16.2929 15.7071C16.4804 15.8946 16.7348 16 17 16H20C20.7956 16 21.5587 15.6839 22.1213 15.1213C22.6839 14.5587 23 13.7956 23 13L23 5C23 4.20435 22.6839 3.44129 22.1213 2.87868C21.5587 2.31607 20.7956 2 20 2L4 2C3.20435 2 2.44129 2.31607 1.87868 2.87868C1.31607 3.44129 1 4.20435 1 5L1 13C1 13.7956 1.31607 14.5587 1.87868 15.1213C2.44129 15.6839 3.20435 16 4 16ZM19 9C19 8.80222 18.9414 8.60888 18.8315 8.44443C18.7216 8.27998 18.5654 8.15181 18.3827 8.07612C18.2 8.00043 17.9989 7.98063 17.8049 8.01921C17.6109 8.0578 17.4327 8.15304 17.2929 8.29289C17.153 8.43275 17.0578 8.61093 17.0192 8.80491C16.9806 8.99889 17.0004 9.19996 17.0761 9.38268C17.1518 9.56541 17.28 9.72159 17.4444 9.83147C17.6089 9.94135 17.8022 10 18 10C18.2652 10 18.5196 9.89464 18.7071 9.70711C18.8946 9.51957 19 9.26522 19 9Z" fill="#2948FF"/>
</svg>
